<?xml version="1.0" encoding="utf-8"?>
<!-- Generator: Adobe Illustrator 23.0.6, SVG Export Plug-In . SVG Version: 6.00 Build 0)  -->
<svg version="1.1" id="Livello_1" xmlns="http://www.w3.org/2000/svg" xmlns:xlink="http://www.w3.org/1999/xlink" x="0px" y="0px"
	 viewBox="0 0 566.9 283.5" style="enable-background:new 0 0 566.9 283.5;" xml:space="preserve">
<style type="text/css">
	.st0{fill:#E52521;}
	.st1{fill:none;stroke:#020203;stroke-width:3;stroke-linecap:round;}
	.st2{fill:#020303;}
	.st3{fill:#020203;}
	.st4{font-family:'ROCKETWILDNESS';}
	.st5{font-size:33px;}
	.st6{fill:none;stroke:#020203;stroke-width:0.628;stroke-miterlimit:10;}
	.st7{fill:none;stroke:#E52521;stroke-width:0.628;stroke-miterlimit:10;}
</style>
<path class="st0" d="M83.2,223.9c-5.6-2.1-10.9-4.9-16-8.2c9.7,6.8,20.8,11.6,32.4,14c11.6,2.4,23.7,2.5,35.4,0.2
	c-8.6,1.3-17.5,1.6-26.3,0.6C99.9,229.4,91.2,227.2,83.2,223.9z M198.5,121.6c-3.5-10.6-9.1-20.4-16.2-28.8
	c-7.2-8.5-16-15.6-25.9-20.7c-9.9-5.2-20.9-8.3-32.3-9.2c-11.3-0.9-22.9,0.5-33.8,4.3c0,0.1,0,0.2-0.2,0.3c-0.3,0.3-0.9,0.7-1.7,1
	c-0.8,0.4-1.7,0.7-2.5,1c-4.8,1.7-9.4,4-13.9,6.6c-8,5.3-15,12-20.6,19.7c1.1-1.6,2.4-3,3.5-4.5c1.3-1.4,2.5-2.8,3.9-4.2
	c2.6-2.8,5.5-5.2,8.5-7.4c0.9-0.7,1.7-1.3,2.4-1.6c0.6-0.3,1-0.4,1.1-0.2c0,0.2-0.3,0.6-0.9,1.3c-0.6,0.6-1.4,1.3-2.3,2
	c-7.9,6.2-14.9,14.5-20,23.5c-5.2,9-8.5,18.7-10.6,27.5c-1.5,11.5-0.4,23.2,3,34c3.4,10.8,9.1,20.7,16.5,28.8
	c7.3,8.1,16.3,14.6,25.9,18.8c9.6,4.3,19.9,6.4,29.9,6.5c0.8,0,1.7,0.1,2.1,0.2c0.6,0.2,0.4,0.3-0.3,0.3
	c-10.5,0.5-21.6-1.3-32.2-5.8c-5.3-2.3-10.5-5.1-15.3-8.7c-4.8-3.5-9.4-7.7-13.4-12.4c-4-4.7-7.6-9.9-10.4-15.7
	c-2.8-5.7-5.1-11.7-6.6-18.1c-1.4-6.4-2.1-12.9-2-19.6v-1.3l0.1-1.3l0.2-2.5c0.2-1.7,0.3-3.3,0.6-5c0.6-3.3,1.1-6.6,2-9.8l0.6-2.4
	l0.8-2.4c0.5-1.6,1.1-3.1,1.7-4.6c-4,8.5-6.6,18-7.5,28c0.2,1,0.3,2.7,0.3,4.6c0.2,4.7,0.7,9.4,1.6,13.9c0-0.2,0.1-0.3,0.2-0.4
	c0.3,0,0.9,1.7,1.3,3.6c2.4,11.4,7.3,22.2,14.2,31.7c0.2,0.2,0.3,0.5,0.5,0.6c8.8,11.4,20.6,20.6,33.7,26.1
	c13.2,5.7,27.6,7.7,41.7,6.1c0.9-0.1,1.7-0.2,2.6-0.3c0.9-0.2,1.7-0.2,2.6-0.4l2.6-0.6l1.3-0.2l1.3-0.3l2.6-0.6l2.5-0.8
	c1.7-0.5,3.3-1.2,5-1.7c3.3-1.3,6.5-2.7,9.6-4.4c1.6-0.8,3.1-1.7,4.6-2.6c0.8-0.5,1.5-0.9,2.2-1.4c0.7-0.5,1.5-0.9,2.2-1.5
	c11.5-8.2,20.7-19.4,26.7-32.1c0.2-0.8,0.7-1.8,1.1-2.3c0.4-0.6,0.6-0.4,0.3,0.4c0.2,0,0.4-0.1,0.3,0.2c-3.6,9.8-9.1,18.9-16.2,26.9
	c-7.2,7.9-16.3,14.6-27.2,19.1c-7.5,3.1-15.4,5.2-23.4,6.1c8.3-0.5,16.3-2,23.4-3.9c9.9-4,19.1-9.9,26.9-17.2
	c7.8-7.2,14.3-15.7,19.4-24.7l-0.6,0.6c0.4-0.8,0.9-1.6,1.3-2.1c0.4-0.6,0.6-0.9,0.8-0.9c0.2,0,0.2,0.3,0,0.9
	c-0.2,0.6-0.5,1.3-0.9,2.2c-2,4.4-4.5,8.7-7.3,12.8c-2.8,4.1-6.1,7.9-9.5,11.5c-3.5,3.5-7.3,6.9-11.4,9.8c-4.1,2.9-8.5,5.5-13.1,7.7
	c-18.3,8.9-40,11-60.2,6.1c-10.1-2.5-19.8-6.8-28.4-12.6s-16.4-13.2-22.7-21.6c-6.3-8.4-11.1-18-14.2-28.1
	c-3.1-10.1-4.3-20.8-3.9-31.4c0.7-16.9,6.4-33.4,15.9-47.2c9.4-13.9,22.8-24.9,38.2-31.7c2.3-1.1,4.5-1.7,6.1-2
	c1.6-0.3,2.7-0.3,2.8,0.1c0.1,0.7-3.5,2.5-8,4.6c-14.6,6.6-27.2,17.3-36.2,30.5c-9.1,13.2-14.5,28.7-15.4,44.6
	c-0.4,7-0.2,14.1,1.1,20.9c1.2,6.9,3.2,13.6,5.9,20c-4.1-10.1-6.1-20.9-6.1-31.6c-0.2-4.1-0.1-8.2,0.3-12.3
	c0.4-4.1,1.2-8.2,2.1-12.3c1.1-4,2.4-8,4-11.9c1.7-3.9,3.5-7.6,5.7-11.3c5.3-8.8,12-16.4,19.6-22.5c7.6-6.1,16.2-11,25.4-14.3
	c9.1-3.3,18.8-5.2,28.7-5.5c5-0.2,9.9,0.1,14.9,0.7c5,0.6,10,1.7,14.9,3.1c9.6,2.8,18.1,7,25.8,11.9c3.8,2.5,7.3,5.2,10.7,8.1
	c3.3,2.9,6.5,6.1,9.3,9.4c2.9,3.3,5.5,6.9,7.9,10.6c2.4,3.7,4.5,7.7,6.4,11.8c1.8,4.2,3.4,8.5,4.6,13.1c1.2,4.6,2,9.3,2.5,14.3
	c0.2,1.7,0.1,3.7-0.2,4.3c-0.1,0.3-0.2,0.3-0.4,0c-0.2-0.3-0.2-0.9-0.3-1.8c-1.6-19-8.9-36.1-20.2-49.9c-2.8-3.5-5.9-6.7-9.2-9.7
	c-1.7-1.6-3.4-2.9-5.1-4.4c-0.9-0.7-1.8-1.3-2.7-2c-0.9-0.7-1.9-1.3-2.8-2c-3.8-2.5-7.7-4.9-11.9-6.9s-8.6-3.7-13.1-5
	c-9.7-2.9-19.6-4.2-29.5-4c-9.8,0.2-19.5,2-28.7,5.3c-9.2,3.3-17.9,8.1-25.6,14.3C56,83.8,49.3,91.4,44,100.1
	c-1.4,2.4-2.8,4.7-3.9,7.2c2.1-3.9,4.5-7.7,7.2-11.2c2.7-3.5,5.6-6.7,8.7-9.7c11.7-12.1,26.7-20.6,42.8-24.2
	c16.1-3.6,33.2-2.5,48.9,3.3c6.1,2.3,11.9,5.1,17.2,8.6c5.4,3.5,10.4,7.6,14.9,12c1.2,1.1,2.2,2.4,3.3,3.5c1.1,1.2,2,2.4,3.1,3.7
	c2,2.5,3.9,5.2,5.5,8c3.3,5.5,6.1,11.4,8,17.7c0.5,1.6,0.9,3.1,1,4.4c0.2,1.3,0.2,2.2-0.1,2.6c-0.2,0.3-0.6,0-0.9-0.8
	C199.4,124.5,198.9,123.2,198.5,121.6z"/>
<path class="st0" d="M109.8,237.2c-7.1-0.8-14.1-2.4-20.9-4.6c-6.8-2.2-13.2-5-19.2-8c-0.6-0.3-0.9-0.4-0.7-0.2
	c0.2,0.3,0.9,0.7,1.5,1c5.7,2.8,12,5.5,18.6,7.6c6.5,2.1,13.5,3.7,20.2,4.5c0.8,0.1,1.5,0.1,1.6-0.1
	C111,237.4,110.5,237.2,109.8,237.2z"/>
<path class="st0" d="M61.4,219.9c-9.2-6.1-17.6-14.2-24.2-23.7c-6.5-9.5-11.5-20.6-14.1-32.2c-2.6-11.7-3-23.9-1-36
	c2-12,6.4-23.8,12.8-34.2c10.5-17,25.9-30,43.5-37.8c1.1-0.5,2.2-1,3.3-1.4l3.4-1.3c2.3-0.8,4.6-1.6,6.9-2.1c2.3-0.7,4.6-1.2,7-1.7
	c2.4-0.4,4.7-0.9,7.2-1.1c2.4-0.3,4.8-0.5,7.2-0.6c1.2-0.1,2.4-0.1,3.6-0.1c1.2-0.1,2.4,0,3.6,0c1.2,0.1,2.4,0,3.6,0.1
	c1.2,0.1,2.4,0.2,3.6,0.2c1.2,0.1,2.4,0.2,3.6,0.4c0.6,0.1,1.2,0.2,1.8,0.2l1.8,0.3c6.4,1,12.7,2.7,18.6,4.8
	c6,2.1,11.6,4.7,16.9,7.6c0.9,0.5,1.5,0.7,1.3,0.4c-0.3-0.4-1.2-1-2.2-1.6c-11-6.1-23.2-10.3-35.8-12.2c-12.6-1.9-25.5-1.4-38.1,1.4
	c-12.5,2.8-24.6,8.2-35.1,15.7c-10.4,7.3-19.5,16.9-26.1,28c-6.5,10.6-10.9,22.4-12.8,34.6c-2,12.2-1.6,24.6,1.1,36.5
	c2.7,11.9,7.7,23.1,14.6,32.7c6.8,9.6,15.4,17.7,24.8,23.9c0.5,0.3,0.9,0.4,0.7,0.2C62.5,220.8,61.8,220.2,61.4,219.9z"/>
<path class="st0" d="M96.1,50.4c-6.7,1.7-13.2,4.1-19.5,7.2c-6.1,3.1-12,6.8-17.4,11.1c-5.4,4.3-10.5,9.1-14.9,14.4
	c-4.5,5.4-8.4,11.2-11.8,17.4c-3.7,6.7-6.4,13.9-8.1,21.3c-1.7,7.4-2.6,15.1-2.2,23.1c0.2,5.3,0.9,10.3,2,15.3
	c1,4.9,2.4,9.6,4.1,14.2c0.8,2.3,1.8,4.6,2.8,6.8c0.6,1.1,1,2.2,1.6,3.3c0.6,1.1,1.1,2.2,1.7,3.3c2.4,4.3,5,8.6,8,12.8
	c0.4,0.6,0.9,1,1.1,1.1c0.1-0.1-0.2-0.5-0.6-1c-6.5-9.1-11.5-18.7-15-29c-3.4-10.2-5.1-21.1-4.9-32.4c0.2-5.2,0.8-10.4,1.8-15.5
	c1-5,2.5-9.9,4.4-14.7c3.8-9.6,9.2-18.4,15.7-26.2C58.4,67.1,76.3,56,96.3,50.8c0.9-0.2,1.3-0.4,1.3-0.6
	C97.6,50.1,96.9,50.2,96.1,50.4z"/>
<path class="st0" d="M38.6,136.1c-0.7,6.5-0.6,13.3,0.4,19.9c1,6.6,2.9,13.2,5.7,19.2c2.8,6.1,6.3,11.6,10.3,16.4
	c4.1,4.8,8.7,8.8,13.3,12c0.5,0.3,0.6,0.3,0.4-0.1c-0.2-0.3-0.9-0.9-1.3-1.2c-4.6-3.2-9-7.2-12.8-12c-3.8-4.8-7.2-10.2-9.7-16.1
	s-4.3-12.2-5.3-18.6c-0.9-6.4-1-12.9-0.4-19.2c0.1-1.2,0.2-2.3-0.1-2.4C39.1,134,38.8,134.9,38.6,136.1z"/>
<path class="st0" d="M116.9,235.3c-7.1-0.1-14.2-1-21.1-2.8c-6.9-1.7-13.5-4.3-19.8-7.6c-6.3-3.2-12.1-7.2-17.6-11.7
	c-5.4-4.5-10.2-9.6-14.6-15.1c-7.8-10.9-13.2-23.4-16-36.5c-0.3-1.9-0.9-3.4-1.1-3.3c-0.3,0-0.2,1.7,0.1,3.5
	c1.3,6.7,3.3,13.2,6,19.5c-0.2-0.2-0.3-0.2-0.3-0.1c-9.8-21.9-10.6-47.6-2.3-70.3c0.5-1.3,0.7-2.2,0.6-2.3c-0.2-0.1-0.7,0.9-1.2,2.1
	c-4.4,11.8-6.3,24.6-5.7,37.1c0.6,12.5,3.9,24.9,9.4,36.1c0.3,0.9,0.8,1.8,1.3,2.8c2.4,4.6,5.3,9.1,8.5,13.2
	c3.1,4.1,6.7,7.9,10.5,11.4c7.6,7,16.3,12.8,25.9,17c6.9,3,13.9,5.3,21.1,6.7c7.2,1.4,14.5,2,21.8,1.8c7.3-0.2,14.6-1.3,21.6-3.2
	c7.1-2,13.9-4.7,20.3-8.3c10.2-5.7,18.8-13.7,26.1-22.8c3.1-3.8,6-8,8.4-12.1c1.3-2.1,2.3-4.3,3.3-6.4c0.9-2.2,1.8-4.3,2.5-6.5
	c3.8-11.8,4.4-23,3.3-33.4c-0.1-0.6-0.2-0.7-0.2-0.2c-0.1,0.4-0.2,1.3-0.1,1.7c0.5,5.2,0.5,10.7-0.2,16.3
	c-0.6,5.5-1.8,11.1-3.3,16.3c-3.9,9.8-9.5,19-16.4,26.9c-6.9,8-15,14.7-24.1,20.2c-3.6,1.9-7.4,3.5-11.2,4.8
	c-3.8,1.3-7.6,2.3-11.5,3.1C133.1,234.6,125.1,235.4,116.9,235.3z"/>
<line class="st1" x1="241.6" y1="89.8" x2="241.6" y2="202.6"/>
<path class="st2" d="M112.9,104h5.3c4.7,0.2,9.4,0.4,14,1.4c1.8,0.4,3.7,1,5.1,2.3c0,6.8-0.1,13.6,0,20.4c4.1-0.1,8.2,0,12.3,0v52.1
	H83.3c0-17.4,0-34.7,0-52.1c3.6,0,7.2,0,10.8,0c0.1-6.5-0.1-13.1,0.1-19.6c-0.1-1.7,1.7-2,2.8-2.5
	C102.2,104.3,107.6,104.2,112.9,104z"/>
<text transform="matrix(1 0 0 1 273.1138 184.7461)" class="st3 st4 st5">V</text>
<text transform="matrix(1 0 0 1 273.1138 184.7461)" class="st6 st4 st5">V</text>
<text transform="matrix(1 0 0 1 300.4375 184.7461)" class="st3 st4 st5">e</text>
<text transform="matrix(1 0 0 1 300.4375 184.7461)" class="st6 st4 st5">e</text>
<text transform="matrix(1 0 0 1 324.8242 184.7461)" class="st3 st4 st5">t</text>
<text transform="matrix(1 0 0 1 324.8242 184.7461)" class="st6 st4 st5">t</text>
<text transform="matrix(1 0 0 1 352.1816 184.7461)" class="st3 st4 st5">i</text>
<text transform="matrix(1 0 0 1 352.1816 184.7461)" class="st6 st4 st5">i</text>
<text transform="matrix(1 0 0 1 361.8516 184.7461)" class="st3 st4 st5">v</text>
<text transform="matrix(1 0 0 1 361.8516 184.7461)" class="st6 st4 st5">v</text>
<text transform="matrix(1 0 0 1 389.1738 184.7461)" class="st3 st4 st5">e</text>
<text transform="matrix(1 0 0 1 389.1738 184.7461)" class="st6 st4 st5">e</text>
<text transform="matrix(1 0 0 1 413.5605 184.7461)" class="st6 st4 st5">r</text>
<text transform="matrix(1 0 0 1 439.4336 184.7461)" class="st0 st4 st5">J</text>
<text transform="matrix(1 0 0 1 439.4336 184.7461)" class="st7 st4 st5">J</text>
<text transform="matrix(1 0 0 1 463.0605 184.7461)" class="st0 st4 st5">a</text>
<text transform="matrix(1 0 0 1 463.0605 184.7461)" class="st7 st4 st5">a</text>
<text transform="matrix(1 0 0 1 488.8848 184.7461)" class="st7 st4 st5">v</text>
<text transform="matrix(1 0 0 1 513.2109 184.7461)" class="st7 st4 st5">a</text>
</svg>
